<?xml version="1.0" encoding="UTF-8"?>
<svg version="1.1" xmlns="http://www.w3.org/2000/svg" width="512" height="512">
<path d="M0 0 C1.01790619 0.00215515 2.03581238 0.0043103 3.08456421 0.00653076 C17.69363523 0.05620146 32.02575853 0.30709809 46.375 3.3125 C47.34985352 3.51117676 48.32470703 3.70985352 49.32910156 3.91455078 C97.7109774 14.03517194 141.69928269 35.9516877 177.375 70.3125 C178.3640332 71.26068604 178.3640332 71.26068604 179.37304688 72.22802734 C188.86130305 81.37247479 197.6012044 90.66984009 205.375 101.3125 C206.23306152 102.46355017 207.09113451 103.61459177 207.94921875 104.765625 C213.98736829 112.95680614 219.34595521 121.47054105 224.375 130.3125 C224.73948242 130.94430176 225.10396484 131.57610352 225.47949219 132.22705078 C247.08534998 169.97532572 256.85198095 212.74189997 256.6875 255.9375 C256.68534485 256.95540619 256.6831897 257.97331238 256.68096924 259.02206421 C256.63129854 273.63113523 256.38040191 287.96325853 253.375 302.3125 C253.07698486 303.77478027 253.07698486 303.77478027 252.77294922 305.26660156 C242.65232806 353.6484774 220.7358123 397.63678269 186.375 433.3125 C185.74287598 433.97185547 185.11075195 434.63121094 184.45947266 435.31054688 C175.31502521 444.79880305 166.01765991 453.5387044 155.375 461.3125 C154.22394983 462.17056152 153.07290823 463.02863451 151.921875 463.88671875 C143.73224019 469.92427396 135.22961724 475.30707302 126.375 480.3125 C125.66778809 480.7146875 124.96057617 481.116875 124.23193359 481.53125 C101.09654164 494.5566741 75.92537591 503.30551461 49.9375 508.625 C49.21860596 508.77235596 48.49971191 508.91971191 47.7590332 509.0715332 C33.08339502 511.86090125 18.55831162 512.66142619 3.64770508 512.62817383 C0.70811513 512.6250221 -2.2304558 512.64854926 -5.16992188 512.67382812 C-18.54306192 512.71848737 -31.43916711 511.51301542 -44.625 509.3125 C-46.33055054 509.03031616 -46.33055054 509.03031616 -48.07055664 508.74243164 C-91.33802759 500.97044532 -132.38793216 480.98345309 -165.625 452.3125 C-166.37007813 451.67828125 -167.11515625 451.0440625 -167.8828125 450.390625 C-181.38779833 438.57948485 -194.05918743 425.82889772 -204.625 411.3125 C-205.48149066 410.16255169 -206.33826433 409.01281411 -207.1953125 407.86328125 C-213.23534209 399.67315742 -218.61867614 391.16870382 -223.625 382.3125 C-224.0271875 381.60528809 -224.429375 380.89807617 -224.84375 380.16943359 C-237.8691741 357.03404164 -246.61801461 331.86287591 -251.9375 305.875 C-252.08485596 305.15610596 -252.23221191 304.43721191 -252.3840332 303.6965332 C-255.35789088 288.05024391 -255.99800362 272.57681954 -255.9375 256.6875 C-255.93534485 255.66959381 -255.9331897 254.65168762 -255.93096924 253.60293579 C-255.88129854 238.99386477 -255.63040191 224.66174147 -252.625 210.3125 C-252.42632324 209.33764648 -252.22764648 208.36279297 -252.02294922 207.35839844 C-241.90232806 158.9765226 -219.9858123 114.98821731 -185.625 79.3125 C-184.99287598 78.65314453 -184.36075195 77.99378906 -183.70947266 77.31445312 C-174.56502521 67.82619695 -165.26765991 59.0862956 -154.625 51.3125 C-153.47394983 50.45443848 -152.32290823 49.59636549 -151.171875 48.73828125 C-142.98224019 42.70072604 -134.47961724 37.31792698 -125.625 32.3125 C-124.91778809 31.9103125 -124.21057617 31.508125 -123.48193359 31.09375 C-100.34654164 18.0683259 -75.17537591 9.31948539 -49.1875 4 C-48.46860596 3.85264404 -47.74971191 3.70528809 -47.0090332 3.5534668 C-31.36274391 0.57960912 -15.88931954 -0.06050362 0 0 Z " fill="#0088FE" transform="translate(255.625,-0.3125)"/>
<path d="M0 0 C3.56843492 1.51741354 5.85370271 3.60685085 8.58111572 6.34060669 C9.49534302 7.25208466 10.40957031 8.16356262 11.35150146 9.10266113 C12.35714871 10.11538613 13.36269969 11.12820672 14.36816406 12.14111328 C15.4323503 13.20586376 16.49697733 14.27017383 17.56201172 15.33407593 C20.45047575 18.22196598 23.3327304 21.11598241 26.21391773 24.01112986 C29.22657973 27.03629155 32.24490374 30.05579312 35.26263428 33.07589722 C40.97557217 38.79505211 46.68339253 44.5192863 52.38939643 50.24535835 C58.88602318 56.76433723 65.38832763 63.27764025 71.89111757 69.79047036 C85.26707693 83.1873367 98.63588184 96.5913219 112 110 C111.34 110.33 110.68 110.66 110 111 C107.62382443 109.78973458 105.39576487 108.51437761 103.125 107.125 C102.38958984 106.68373779 101.65417969 106.24247559 100.89648438 105.7878418 C98.25872808 104.20098336 95.62927142 102.60087615 93 101 C90.84129727 99.69115646 88.68243431 98.38257714 86.5234375 97.07421875 C82.96540489 94.91677655 79.40852908 92.75745497 75.85400391 90.59423828 C68.08640769 85.86738458 60.30189131 81.17012859 52.5 76.5 C43.3989062 71.04987536 34.31758452 65.56812382 25.25 60.0625 C24.67757568 59.71509766 24.10515137 59.36769531 23.51538086 59.00976562 C15.32429613 54.03757949 7.15571399 49.02991519 -1 44 C-3.9374774 64.46053864 -3.9374774 64.46053864 0.65673828 83.73681641 C5.12441885 87.87241886 10.56435589 89.87968375 16.22949219 91.90722656 C20.68157798 93.66326604 24.47800648 96.28314488 28.4375 98.9375 C30.01015975 99.94328977 31.58571592 100.94456431 33.1640625 101.94140625 C33.95458008 102.4430127 34.74509766 102.94461914 35.55957031 103.46142578 C39.79178007 106.12963165 44.0537419 108.74946651 48.3125 111.375 C51.87724076 113.57973144 55.43925037 115.78882918 59 118 C60.01320313 118.6285791 61.02640625 119.2571582 62.0703125 119.90478516 C65.15614246 121.82433602 68.23512316 123.75443294 71.3125 125.6875 C72.28034424 126.28804199 73.24818848 126.88858398 74.24536133 127.50732422 C75.1298999 128.06564941 76.01443848 128.62397461 76.92578125 129.19921875 C77.71380127 129.69252686 78.50182129 130.18583496 79.3137207 130.6940918 C80.14842896 131.34051636 80.14842896 131.34051636 81 132 C81 132.66 81 133.32 81 134 C79.14941406 135.33422852 79.14941406 135.33422852 76.515625 136.87890625 C75.53231201 137.46140137 74.54899902 138.04389648 73.53588867 138.64404297 C72.45154541 139.27713379 71.36720215 139.91022461 70.25 140.5625 C68.53265674 141.5785321 66.81532903 142.59459131 65.09880066 143.61199951 C63.89782246 144.32351208 62.69632398 145.03414709 61.49433899 145.74395752 C55.60613857 149.22263528 49.75822315 152.7659864 43.91680908 156.32250977 C42.18407687 157.37708338 40.45034119 158.42998807 38.71630859 159.48242188 C33.1607471 162.85522684 27.61029222 166.23609372 22.0693512 169.63287354 C19.46669612 171.22775194 16.86206777 172.81939084 14.25723267 174.41070557 C13.00881231 175.1746513 11.7613836 175.94022006 10.51498413 176.7074585 C8.7910587 177.76855514 7.06358436 178.82387956 5.3359375 179.87890625 C4.35157715 180.4829126 3.3672168 181.08691895 2.35302734 181.70922852 C0 183 0 183 -2 183 C-1.67 195.87 -1.34 208.74 -1 222 C3.95 219.03 8.9 216.06 14 213 C17.45609821 210.95434997 20.91371771 208.91180169 24.375 206.875 C32.29493948 202.20620017 40.18609963 197.49183164 48.0625 192.75 C57.89372869 186.83400555 67.77602704 181.01035004 77.68145752 175.2199707 C85.29152612 170.77069183 92.88548184 166.29741071 100.4375 161.75 C107.65996051 157.40537397 114.8839128 153.06353942 122.125 148.75 C123.08075928 148.17604492 124.03651855 147.60208984 125.02124023 147.01074219 C125.90368408 146.48641602 126.78612793 145.96208984 127.6953125 145.421875 C128.47922363 144.95362305 129.26313477 144.48537109 130.07080078 144.00292969 C132 143 132 143 134 143 C134 137.39 134 131.78 134 126 C142.25439239 132.91587988 149.92785838 140.4219803 157.61212826 147.96006298 C160.01554891 150.317157 162.42855557 152.66222933 164.86743164 154.98266602 C167.70172281 157.67992832 170.49019967 160.42198048 173.27734375 163.16796875 C174.15220932 163.98919724 175.02707489 164.81042572 175.92845154 165.65653992 C180.13075991 169.87146617 182.52895541 172.65834104 182.61181641 178.76318359 C182.4606817 180.51415127 182.26313566 182.26233228 182 184 C181.8548999 185.03439209 181.7097998 186.06878418 181.56030273 187.13452148 C181.35348877 187.95509033 181.1466748 188.77565918 180.93359375 189.62109375 C180.69922607 190.5656543 180.4648584 191.51021484 180.22338867 192.48339844 C179.83437378 193.94567871 179.83437378 193.94567871 179.4375 195.4375 C179.16719971 196.4780957 178.89689941 197.51869141 178.6184082 198.59082031 C167.44719288 240.53804625 146.1144399 278.73315347 116 310 C115.36787598 310.65935547 114.73575195 311.31871094 114.08447266 311.99804688 C104.94002521 321.48630305 95.64265991 330.2262044 85 338 C83.84894983 338.85806152 82.69790823 339.71613451 81.546875 340.57421875 C73.35724019 346.61177396 64.85461724 351.99457302 56 357 C55.29278809 357.4021875 54.58557617 357.804375 53.85693359 358.21875 C30.26456013 371.50145861 2.94407699 382.1922906 -24 386 C-25.13308594 386.18691406 -26.26617187 386.37382812 -27.43359375 386.56640625 C-31.45894902 385.92711105 -31.70960403 385.57111757 -34.12582016 382.56961632 C-38.33807369 377.54225831 -42.91175331 372.9493958 -47.55328369 368.31973267 C-48.50610191 367.36576005 -49.45870239 366.41156991 -50.41110587 365.45718324 C-53.00962465 362.85451529 -55.61122198 360.25494439 -58.21336985 357.65590549 C-61.02630958 354.84523754 -63.83635886 352.03168223 -66.64678955 349.21850586 C-72.14388821 343.71697039 -77.64367487 338.21812976 -83.14444378 332.72026427 C-87.61357622 328.25339292 -92.08172836 323.78554318 -96.54918671 319.31699753 C-97.18570519 318.68032581 -97.82222368 318.04365409 -98.47803061 317.38768928 C-99.77115491 316.09424525 -101.06427697 314.80079898 -102.35739681 313.50735049 C-114.46916455 301.39273438 -126.58399014 289.28117991 -138.69987056 277.17067711 C-149.09950472 266.77551579 -159.49650671 256.37772787 -169.89160156 245.97802734 C-181.96740794 233.89687314 -194.04482999 221.81733791 -206.12484717 209.740394 C-207.41192566 208.45363406 -208.69900207 207.16687202 -209.98607635 205.88010788 C-210.61933467 205.24700384 -211.25259298 204.61389981 -211.90504093 203.9616108 C-216.37151907 199.49599679 -220.83683434 195.02922203 -225.30170441 190.56200027 C-230.73757077 185.12333365 -236.17520643 179.68644355 -241.61514023 174.2518452 C-244.39143578 171.47818275 -247.16691648 168.70371751 -249.94024658 165.92708969 C-252.47676048 163.38760519 -255.01555469 160.85042427 -257.55622026 158.31509356 C-258.91434124 156.95862605 -260.26999634 155.59969105 -261.62557435 154.24068224 C-262.8298302 153.04033801 -262.8298302 153.04033801 -264.05841446 151.8157444 C-265.09904207 150.77536032 -265.09904207 150.77536032 -266.16069245 149.71395838 C-268.09099161 147.82275521 -268.09099161 147.82275521 -271 146 C-270.505 145.01 -270.505 145.01 -270 144 C-268.64603135 144.80391889 -267.29206288 145.60783807 -265.93809509 146.41175842 C-264.70434339 147.14429687 -263.47058881 147.87683046 -262.23683167 148.60935974 C-258.70461499 150.70658375 -255.17245314 152.8039 -251.64038086 154.90136719 C-244.30429197 159.2576644 -236.96754494 163.61284316 -229.62890625 167.96484375 C-216.46099964 175.774953 -203.30467437 183.60271759 -190.18481445 191.4934082 C-184.77002729 194.74721385 -179.34674587 197.98592164 -173.91015625 201.203125 C-173.31152267 201.55740067 -172.7128891 201.91167633 -172.09611511 202.27668762 C-169.22175382 203.97708483 -166.34627922 205.67555014 -163.46948242 207.37182617 C-145.66363874 217.89090751 -145.66363874 217.89090751 -138 223 C-138 209.8 -138 196.6 -138 183 C-140.97 182.01 -140.97 182.01 -144 181 C-146.32660017 179.65391586 -148.5654473 178.27895123 -150.8125 176.8125 C-157.72231137 172.40098968 -164.71156266 168.14058973 -171.75 163.9375 C-180.56758135 158.66176837 -189.37688652 153.37302661 -198.16516113 148.0486145 C-199.37067961 147.3185945 -200.57663985 146.58930341 -201.78308105 145.86080933 C-208.62985605 141.72566764 -215.39611127 137.51457704 -222 133 C-218.68689437 130.26328142 -215.33780653 127.86967164 -211.66796875 125.63671875 C-210.11819336 124.68925781 -210.11819336 124.68925781 -208.53710938 123.72265625 C-207.43173828 123.05105469 -206.32636719 122.37945312 -205.1875 121.6875 C-202.82579132 120.24517433 -200.46564934 118.80029321 -198.10546875 117.35546875 C-197.50773651 116.98996918 -196.91000427 116.6244696 -196.29415894 116.24789429 C-190.50464991 112.70475284 -184.75004467 109.10678489 -179 105.5 C-170.82578859 100.38220304 -162.64347049 95.27774413 -154.43920898 90.20825195 C-153.28000645 89.49140434 -152.12146669 88.77348377 -150.96362305 88.05444336 C-149.35650251 87.05675079 -147.74666952 86.06343154 -146.13671875 85.0703125 C-145.21592529 84.50070801 -144.29513184 83.93110352 -143.34643555 83.34423828 C-141 82 -141 82 -138 81 C-138 68.79 -138 56.58 -138 44 C-133.69427308 47.69062307 -129.67448982 51.20356468 -125.71069336 55.19165039 C-125.2316304 55.67217361 -124.75256744 56.15269684 -124.25898743 56.64778137 C-123.2326898 57.67784618 -122.20754726 58.70906296 -121.18348503 59.74135017 C-119.55806947 61.37968304 -117.92941611 63.01473683 -116.29994202 64.64903259 C-112.8429567 68.1173691 -109.38993545 71.58963523 -105.9375 75.0625 C-101.92945478 79.0942359 -97.91975261 83.12429507 -93.90579414 87.15014458 C-92.30962009 88.75274987 -90.71651323 90.35836056 -89.1235199 91.96412659 C-88.13580046 92.95548173 -87.14793855 93.94669497 -86.15991211 94.93774414 C-85.30610458 95.79678848 -84.45229706 96.65583282 -83.57261658 97.54090881 C-80.81354206 100.17822985 -77.95695533 102.58848887 -75 105 C-77.15228498 111.79457998 -79.69488624 118.37807812 -82.40234375 124.96875 C-82.83181808 126.02085159 -83.26129242 127.07295319 -83.70378113 128.15693665 C-85.11232933 131.60573136 -86.52491073 135.05285873 -87.9375 138.5 C-88.93045349 140.9291671 -89.92312513 143.35844943 -90.91552734 145.7878418 C-92.95203816 150.77245521 -94.99028958 155.75635323 -97.02978516 160.73974609 C-99.75694533 167.40428855 -102.47930611 174.0707781 -105.19921875 180.73828125 C-105.61082748 181.7472496 -106.02243622 182.75621796 -106.44651794 183.79576111 C-107.26681348 185.80655579 -108.08710063 187.81735389 -108.90737915 189.82815552 C-110.93478301 194.79724875 -112.9634875 199.76581083 -114.9921875 204.734375 C-119.95928048 216.89978215 -124.9250101 229.06574557 -129.89056396 241.23178101 C-132.03637377 246.48917399 -134.18225083 251.74653953 -136.328125 257.00390625 C-137.04589878 258.76245103 -137.76367225 260.52099594 -138.48144531 262.27954102 C-138.98763021 263.51969401 -139.4938151 264.75984701 -140 266 C-138.43200219 266.79294253 -136.86294445 267.58378927 -135.29345703 268.3737793 C-134.41980499 268.81441208 -133.54615295 269.25504486 -132.64602661 269.70903015 C-128.79238852 271.58918153 -124.85233061 273.21522095 -120.875 274.8125 C-120.10929688 275.12380859 -119.34359375 275.43511719 -118.5546875 275.75585938 C-116.70456881 276.50747009 -114.852498 277.25427285 -113 278 C-112.89921143 277.3390332 -112.79842285 276.67806641 -112.69458008 275.99707031 C-111.81011518 272.18065869 -110.37203089 268.65894966 -108.88671875 265.046875 C-108.56521347 264.25496765 -108.24370819 263.4630603 -107.91246033 262.64715576 C-106.84174833 260.01300771 -105.76469421 257.3815032 -104.6875 254.75 C-103.92916865 252.88881692 -103.17120076 251.02748572 -102.41357422 249.16601562 C-100.79532623 245.19232619 -99.17427195 241.21979671 -97.55126953 237.24804688 C-95.39938578 231.98087289 -93.25437202 226.71093343 -91.11170959 221.44000244 C-75.50963313 183.05934375 -75.50963313 183.05934375 -68.27954102 166.14477539 C-60.85003227 148.68677243 -53.79768412 131.06821733 -46.64501953 113.49560547 C-42.43765697 103.16061869 -38.21819655 92.83056833 -34 82.5 C-32.35403232 78.46880484 -30.70818618 74.43756009 -29.0625 70.40625 C-28.6532579 69.40376724 -28.24401581 68.40128448 -27.82237244 67.36842346 C-25.15877211 60.84239979 -22.49838086 54.31507517 -19.83984375 47.7869873 C-18.00299449 43.2768892 -16.16511135 38.76721273 -14.32714844 34.25756836 C-13.45228239 32.11015525 -12.57792154 29.96253625 -11.70410156 27.81469727 C-10.49151843 24.83427329 -9.27718674 21.85456714 -8.0625 18.875 C-7.53257446 17.57048889 -7.53257446 17.57048889 -6.99194336 16.23962402 C-4.76324715 10.77891794 -2.42712219 5.37544034 0 0 Z " fill="#0050C3" transform="translate(326,123)"/>
<path d="M0 0 C8.60192319 4.88180903 17.1532525 9.83186958 25.625 14.9375 C26.68565674 15.57518311 27.74631348 16.21286621 28.83911133 16.86987305 C37.38758464 22.01493199 45.91551897 27.19372137 54.44000244 32.37838745 C64.22856323 38.33130264 74.04533852 44.2359082 83.87399292 50.12234497 C94.50402322 56.48981518 105.10579694 62.90272238 115.69140625 69.34375 C116.76777344 69.99859375 117.84414063 70.6534375 118.953125 71.328125 C119.97237061 71.95775146 120.99161621 72.58737793 122.04174805 73.23608398 C123.97095836 74.38641365 125.93652079 75.47842051 127.93676758 76.50024414 C134.31857008 79.84075017 134.31857008 79.84075017 136.17822266 83.00439453 C137.90339778 88.63515717 137.69395076 94.73881 135 100 C129.03950263 105.98689584 120.98607941 109.46543038 113.51025391 113.19824219 C108.08669043 115.98207154 102.93915945 119.18176785 97.75 122.375 C87.98643049 128.25777919 78.15815204 134.02783827 68.31771851 139.78057861 C59.9126107 144.69464861 51.53602111 149.65233216 43.19555664 154.67553711 C37.02066054 158.39301783 30.8282682 162.08005654 24.625 165.75 C23.3421814 166.51038574 23.3421814 166.51038574 22.03344727 167.28613281 C14.73215394 171.60012146 7.3703641 175.80557089 0 180 C-3.44163007 145.8364064 -3.44163007 145.8364064 1.70800781 137.10351562 C6.51919681 132.61818405 12.53434505 130.57008652 18.63769531 128.36181641 C24.08569003 126.15524405 28.93587924 122.99173981 33.88021851 119.85107422 C36.79591131 118.01107638 39.74981031 116.23445928 42.69921875 114.44921875 C47.09279461 111.77646789 51.48096503 109.09493315 55.86688232 106.40963745 C58.4370259 104.83679452 61.00890045 103.26679568 63.58099365 101.69714355 C64.80750662 100.94753392 66.03315128 100.1965015 67.25787354 99.44396973 C68.96017576 98.39801569 70.66557356 97.35710485 72.37109375 96.31640625 C73.33974365 95.72287354 74.30839355 95.12934082 75.30639648 94.51782227 C77.82227193 93.10014823 80.29428244 91.99846175 83 91 C79.31913688 86.74744969 74.73760562 84.29116239 69.9375 81.5 C63.18521693 77.5128446 56.48757972 73.46498167 49.875 69.25 C41.14543507 63.69321755 32.33877562 58.2662985 23.50927734 52.87011719 C21.42154145 51.59103208 19.34606613 50.29172415 17.28320312 48.97290039 C14.88419539 47.53131938 12.64838698 46.34912204 10.12304688 45.19702148 C0.95839724 40.73004893 0.95839724 40.73004893 -0.70730591 35.98519897 C-1.73690622 30.14506625 -1.27734719 24.31925197 -0.875 18.4375 C-0.80468495 16.64803051 -0.74082199 14.85829518 -0.68359375 13.06835938 C-0.53013147 8.70562031 -0.28926066 4.35575692 0 0 Z " fill="#FCF3CA" transform="translate(324,166)"/>
<path d="M0 0 C0.24831278 5.14083851 0.42912974 10.27815224 0.54931641 15.42358398 C0.59943045 17.17094741 0.66754898 18.91789504 0.75439453 20.66381836 C1.45255493 35.06645666 1.45255493 35.06645666 -1.88598633 39.51049805 C-4.5000519 41.3683841 -7.08186026 42.67606579 -10 44 C-11.79221041 45.08812775 -13.5722347 46.19656702 -15.33984375 47.32421875 C-17.20397517 48.44822659 -19.06992283 49.56922674 -20.9375 50.6875 C-28.10737402 55.01528768 -35.24690077 59.37884971 -42.3125 63.875 C-47.78881865 67.35982145 -53.28788802 70.80409509 -58.8203125 74.19921875 C-59.40892563 74.56049866 -59.99753876 74.92177856 -60.60398865 75.29400635 C-63.52412321 77.08518393 -66.44618603 78.87314229 -69.37036133 80.65771484 C-70.43279053 81.30820801 -71.49521973 81.95870117 -72.58984375 82.62890625 C-73.53722412 83.20713135 -74.48460449 83.78535645 -75.46069336 84.38110352 C-77.7302932 85.82805251 -79.87445014 87.35095801 -82 89 C-81.29842773 89.42595459 -80.59685547 89.85190918 -79.87402344 90.29077148 C-77.73827609 91.58747523 -75.60253448 92.88418842 -73.46679688 94.1809082 C-70.9577365 95.70427226 -68.4486148 97.22753524 -65.93945312 98.75073242 C-59.49510151 102.66292022 -53.05137595 106.57613003 -46.609375 110.4921875 C-35.98086722 116.95239658 -25.34995669 123.40840209 -14.6875 129.8125 C-13.89988281 130.28598877 -13.11226563 130.75947754 -12.30078125 131.24731445 C-11.19863281 131.90799927 -11.19863281 131.90799927 -10.07421875 132.58203125 C-9.45119873 132.95561768 -8.82817871 133.3292041 -8.1862793 133.71411133 C-5.14111126 135.50516661 -2.06736028 137.2472227 1 139 C1 152.2 1 165.4 1 179 C-4.29064381 176.35467809 -9.37604566 173.39049107 -14.5 170.4375 C-15.0701181 170.10909119 -15.64023621 169.78068237 -16.22763062 169.44232178 C-25.75087483 163.94965747 -35.16845273 158.29666827 -44.54867554 152.56393433 C-54.89333314 146.24381727 -65.31950173 140.07315728 -75.79418945 133.97119141 C-82.28190222 130.18938555 -88.74261513 126.36781106 -95.17686462 122.49609375 C-99.91677922 119.6452962 -104.66985933 116.81741143 -109.4296875 114 C-110.12577621 113.5877417 -110.82186493 113.1754834 -111.53904724 112.75073242 C-114.38436353 111.06579214 -117.22992173 109.38126715 -120.07666016 107.69873047 C-122.19513248 106.44632699 -124.31249976 105.19207347 -126.4296875 103.9375 C-127.07743134 103.55529297 -127.72517517 103.17308594 -128.39254761 102.77929688 C-133.80637516 99.56788372 -133.80637516 99.56788372 -135.22265625 95.4140625 C-136.42551098 89.8473765 -136.74892156 85.13977463 -134 80 C-125.94848353 72.68247703 -115.6155156 68.02757416 -106.00341797 63.09521484 C-100.94948923 60.48437122 -96.15960717 57.50891858 -91.375 54.4375 C-83.12514288 49.26997074 -74.79043771 44.24825882 -66.4375 39.25 C-56.42171897 33.25498371 -46.4162992 27.24391677 -36.4375 21.1875 C-35.86154083 20.83821442 -35.28558167 20.48892883 -34.69216919 20.12905884 C-28.65788094 16.46826654 -22.63888402 12.78530521 -16.65234375 9.046875 C-15.67273682 8.43561768 -14.69312988 7.82436035 -13.68383789 7.19458008 C-11.85872094 6.05287067 -10.03613818 4.90709651 -8.21655273 3.7565918 C-7.42063721 3.25812744 -6.62472168 2.75966309 -5.8046875 2.24609375 C-5.11358887 1.80966553 -4.42249023 1.3732373 -3.71044922 0.92358398 C-2 0 -2 0 0 0 Z " fill="#FCFDFE" transform="translate(187,167)"/>
<path d="M0 0 C6.10033201 1.88555717 12.05965857 4.10221996 18 6.4375 C18.76626709 6.72568604 19.53253418 7.01387207 20.32202148 7.31079102 C22.5 8.18359375 22.5 8.18359375 26 10 C27.35980611 13.22974848 26.95639464 14.13094815 25.79101562 17.63061523 C25.17429182 19.11146338 24.5450849 20.58714907 23.90625 22.05859375 C23.56865158 22.86144302 23.23105316 23.6642923 22.88322449 24.49147034 C22.15043157 26.23069857 21.41248333 27.96776163 20.67001343 29.70288086 C19.07857072 33.42248748 17.51197523 37.15239692 15.94352722 40.88174438 C15.13592829 42.8010584 14.32700558 44.71981591 13.51679993 46.63803101 C9.82144691 55.3913335 6.23913896 64.1876259 2.6875 73 C1.46051967 76.03811812 0.23234215 79.07575142 -0.99609375 82.11328125 C-1.31092712 82.89202606 -1.6257605 83.67077087 -1.95013428 84.47311401 C-6.65330497 96.09792937 -11.40626325 107.70252429 -16.15158081 119.31018066 C-20.73876644 130.53216521 -25.3140726 141.75856774 -29.84375 153.00390625 C-30.22967316 153.96117111 -30.61559631 154.91843597 -31.01321411 155.90470886 C-32.82786254 160.40643562 -34.63936713 164.90937407 -36.44482422 169.41479492 C-39.14169351 176.12284083 -41.84800286 182.7947581 -44.93359375 189.3359375 C-49.24865309 198.51372571 -52.9140348 207.96552403 -56.6875 217.375 C-57.5117828 219.42339646 -58.33641475 221.47165245 -59.16137695 223.51977539 C-60.88625877 227.8028516 -62.60961957 232.08653535 -64.33203125 236.37060547 C-68.34464253 246.34654659 -72.37867273 256.3138323 -76.41104126 266.28179932 C-78.44541291 271.31123569 -80.47853366 276.34117761 -82.51171875 281.37109375 C-83.19359733 283.05786383 -83.87548141 284.74463168 -84.55737305 286.43139648 C-85.03343994 287.60903564 -85.50950684 288.7866748 -86 290 C-90.73895114 288.45425029 -95.44668985 286.91434908 -100.03515625 284.95703125 C-101.27749023 284.43012695 -101.27749023 284.43012695 -102.54492188 283.89257812 C-103.37572266 283.53615234 -104.20652344 283.17972656 -105.0625 282.8125 C-105.92810547 282.44447266 -106.79371094 282.07644531 -107.68554688 281.69726562 C-109.79170883 280.80127408 -111.89647192 279.90215345 -114 279 C-108.54745351 264.44160298 -102.82469799 250.02213515 -96.8125 235.6875 C-91.69639818 223.48756489 -86.64207323 211.26648581 -81.6875 199 C-80.44427477 195.92307018 -79.20083629 192.84622674 -77.95703125 189.76953125 C-77.48344429 188.59803024 -77.48344429 188.59803024 -77.00028992 187.40286255 C-72.9876964 177.48583309 -68.92978409 167.58733337 -64.875 157.6875 C-59.6734727 144.98484725 -54.47629771 132.2805444 -49.3125 119.5625 C-49.054617 118.92738495 -48.79673401 118.2922699 -48.53103638 117.63790894 C-45.81629306 110.95073801 -43.10566476 104.26190391 -40.39738464 97.57211304 C-31.39390752 75.33247894 -22.3434272 53.11243825 -13.23960876 30.91366577 C-11.31601286 26.22184223 -9.40083936 21.5267517 -7.49511719 16.82763672 C-7.08224457 15.81189072 -6.66937195 14.79614471 -6.24398804 13.74961853 C-5.44360774 11.78004661 -4.64521757 9.80966452 -3.84902954 7.83839417 C-3.49070038 6.95771774 -3.13237122 6.07704132 -2.76318359 5.16967773 C-2.28780655 3.99609962 -2.28780655 3.99609962 -1.80282593 2.79881287 C-1 1 -1 1 0 0 Z " fill="#FCF3CB" transform="translate(299,111)"/>
<path d="M0 0 C0.33 0 0.66 0 1 0 C4.05912199 81.04892823 4.05912199 81.04892823 -10.47302246 107.29742432 C-15.56928878 116.56962384 -19.23613636 126.4842533 -23.13635254 136.3013916 C-25.180443 141.42456231 -27.27840297 146.52544683 -29.37109375 151.62890625 C-33.63468528 162.06445505 -37.83012199 172.5267008 -42 183 C-46.73895114 181.45425029 -51.44668985 179.91434908 -56.03515625 177.95703125 C-56.86337891 177.60576172 -57.69160156 177.25449219 -58.54492188 176.89257812 C-59.37572266 176.53615234 -60.20652344 176.17972656 -61.0625 175.8125 C-61.92810547 175.44447266 -62.79371094 175.07644531 -63.68554688 174.69726562 C-65.79170883 173.80127408 -67.89647192 172.90215345 -70 172 C-64.54745351 157.44160298 -58.82469799 143.02213515 -52.8125 128.6875 C-47.69639649 116.48756087 -42.64234457 104.26637838 -37.6875 92 C-36.44556597 88.92698083 -35.20338173 85.85406293 -33.9609375 82.78125 C-33.64541931 82.00086868 -33.32990112 81.22048737 -33.00482178 80.41645813 C-28.96589178 70.43403787 -24.89044658 60.4665318 -20.8125 50.5 C-20.43251862 49.57127075 -20.05253723 48.6425415 -19.66104126 47.68566895 C-13.14879765 31.77324175 -6.59660478 15.87764478 0 0 Z " fill="#FCFDFE" transform="translate(255,218)"/>
</svg>
